
<svg width="40" height="5" viewBox="0 0 50 50" fill="none" xmlns="http://www.w3.org/2000/svg">
<path fill-rule="evenodd" clip-rule="evenodd" d="M25 38.4999C32.4557 38.4999 38.4999 32.4557 38.4999 25C38.4999 17.5442 32.4557 11.5 25 11.5C17.5442 11.5 11.5 17.5442 11.5 25C11.5 32.4557 17.5442 38.4999 25 38.4999ZM25 39.9999C33.2845 39.9999 39.9999 33.2845 39.9999 25C39.9999 16.7155 33.2845 10 25 10C16.7155 10 10 16.7155 10 25C10 33.2845 16.7155 39.9999 25 39.9999Z" fill="#008080"/>
<path d="M16 33.7224C16 32.9477 16.579 32.293 17.35 32.2075C23.1362 31.567 26.89 31.6247 32.6635 32.2217C32.9518 32.252 33.225 32.3656 33.4498 32.5486C33.6747 32.7316 33.8413 32.9761 33.9294 33.2523C34.0176 33.5285 34.0234 33.8243 33.9461 34.1037C33.8689 34.3831 33.7119 34.634 33.4945 34.8257C26.6807 40.7649 22.7867 40.6832 16.48 34.8317C16.1725 34.5467 16 34.1417 16 33.7232V33.7224Z" fill="#008080"/>
<path fill-rule="evenodd" clip-rule="evenodd" d="M32.5862 32.9672C26.8585 32.3747 23.1587 32.3192 17.4318 32.953C17.2432 32.9749 17.0694 33.0656 16.9437 33.2078C16.8179 33.3499 16.7489 33.5334 16.75 33.7232C16.75 33.9377 16.8393 34.141 16.99 34.2819C20.116 37.1814 22.4845 38.4917 24.7997 38.4999C27.1232 38.5082 29.6192 37.2084 33.0017 34.261C33.1092 34.1653 33.1865 34.0405 33.2244 33.9017C33.2622 33.7629 33.259 33.6161 33.215 33.4792C33.1709 33.3422 33.0881 33.221 32.9765 33.1302C32.8649 33.0395 32.7293 32.9831 32.5862 32.968V32.9672ZM17.2675 31.462C23.1145 30.8147 26.923 30.8732 32.7415 31.4755C33.1752 31.5207 33.5863 31.6915 33.9245 31.9668C34.2627 32.2421 34.5132 32.6101 34.6455 33.0256C34.7778 33.4411 34.786 33.8862 34.6692 34.3064C34.5525 34.7265 34.3157 35.1035 33.988 35.3912C30.5567 38.3822 27.6992 40.0112 24.7952 39.9999C21.883 39.9894 19.1515 38.3327 15.9708 35.3814C15.743 35.1693 15.5615 34.9125 15.4375 34.6271C15.3134 34.3416 15.2496 34.0337 15.25 33.7225C15.2489 33.1633 15.4542 32.6234 15.8264 32.2061C16.1987 31.7889 16.7118 31.5236 17.2675 31.4612V31.462Z" fill="#008080"/>
<path d="M31 22C31 23.5913 30.3678 25.1174 29.2426 26.2426C28.1174 27.3678 26.5913 28 25 28C23.4087 28 21.8826 27.3678 20.7574 26.2426C19.6321 25.1174 19 23.5913 19 22C19 20.4087 19.6321 18.8826 20.7574 17.7574C21.8826 16.6321 23.4087 16 25 16C26.5913 16 28.1174 16.6321 29.2426 17.7574C30.3678 18.8826 31 20.4087 31 22Z" fill="#008080"/>
<path fill-rule="evenodd" clip-rule="evenodd" d="M25 26.5C26.1935 26.5 27.3381 26.0259 28.182 25.182C29.0259 24.3381 29.5 23.1935 29.5 22C29.5 20.8065 29.0259 19.6619 28.182 18.818C27.3381 17.9741 26.1935 17.5 25 17.5C23.8065 17.5 22.6619 17.9741 21.818 18.818C20.9741 19.6619 20.5 20.8065 20.5 22C20.5 23.1935 20.9741 24.3381 21.818 25.182C22.6619 26.0259 23.8065 26.5 25 26.5ZM25 28C26.5913 28 28.1174 27.3678 29.2426 26.2426C30.3678 25.1174 31 23.5913 31 22C31 20.4087 30.3678 18.8826 29.2426 17.7574C28.1174 16.6321 26.5913 16 25 16C23.4087 16 21.8826 16.6321 20.7574 17.7574C19.6321 18.8826 19 20.4087 19 22C19 23.5913 19.6321 25.1174 20.7574 26.2426C21.8826 27.3678 23.4087 28 25 28Z" fill="#008080"/>
<circle cx="25" cy="25" r="25" fill="#008080" fill-opacity="0.2"/>
</svg>
