<?xml version="1.0" encoding="UTF-8"?>
<svg xmlns="http://www.w3.org/2000/svg" xmlns:xlink="http://www.w3.org/1999/xlink" viewBox="0 0 35 35" width="35px" height="35px">
<g id="surface11831372">
<path style=" stroke:none;fill-rule:nonzero;fill:rgb(100%,100%,100%);fill-opacity:1;" d="M 31.167969 24.324219 C 30.414062 26 30.050781 26.75 29.078125 28.230469 C 27.722656 30.296875 25.804688 32.878906 23.4375 32.894531 C 21.328125 32.914062 20.785156 31.519531 17.921875 31.542969 C 15.0625 31.558594 14.464844 32.921875 12.355469 32.898438 C 9.984375 32.878906 8.171875 30.554688 6.8125 28.488281 C 3.011719 22.699219 2.609375 15.914062 4.957031 12.304688 C 6.621094 9.746094 9.246094 8.242188 11.714844 8.242188 C 14.230469 8.242188 15.8125 9.621094 17.890625 9.621094 C 19.910156 9.621094 21.136719 8.238281 24.046875 8.238281 C 26.246094 8.238281 28.570312 9.4375 30.230469 11.503906 C 24.796875 14.484375 25.679688 22.246094 31.167969 24.324219 Z M 21.835938 5.929688 C 22.894531 4.570312 23.699219 2.652344 23.40625 0.699219 C 21.679688 0.816406 19.664062 1.917969 18.484375 3.347656 C 17.414062 4.648438 16.53125 6.578125 16.875 8.445312 C 18.757812 8.507812 20.707031 7.382812 21.835938 5.929688 Z M 21.835938 5.929688 "/>
</g>
</svg>
