<svg width="8" height="6" viewBox="0 0 50 50" fill="none" xmlns="http://www.w3.org/2000/svg">
<circle cx="25" cy="25" r="20" fill="#008080" fill-opacity="0.2"/>
<path d="M35 15H15C13.6212 15 12.5 16.1212 12.5 17.5V32.5C12.5 33.8788 13.6212 35 15 35H35C36.3788 35 37.5 33.8788 37.5 32.5V17.5C37.5 16.1212 36.3788 15 35 15ZM16.25 20.625C16.25 20.4592 16.3158 20.3003 16.4331 20.1831C16.5503 20.0658 16.7092 20 16.875 20H20.625C20.7908 20 20.9497 20.0658 21.0669 20.1831C21.1842 20.3003 21.25 20.4592 21.25 20.625V23.125C21.25 23.2908 21.1842 23.4497 21.0669 23.5669C20.9497 23.6842 20.7908 23.75 20.625 23.75H16.875C16.7092 23.75 16.5503 23.6842 16.4331 23.5669C16.3158 23.4497 16.25 23.2908 16.25 23.125V20.625ZM23.75 30H16.25V27.5H23.75V30ZM33.75 30H26.25V27.5H33.75V30Z" fill="#008080"/>
</svg>
