<svg width="50" height="5" viewBox="0 0 50 50" fill="none" xmlns="http://www.w3.org/2000/svg">
<circle cx="25" cy="25" r="20" fill="#008080" fill-opacity="0.2"/>
<path d="M23.75 12.5L32.8725 15.35C33.1269 15.4294 33.3493 15.5881 33.5072 15.8029C33.665 16.0176 33.7501 16.2772 33.75 16.5438V18.75H36.25C36.5815 18.75 36.8995 18.8817 37.1339 19.1161C37.3683 19.3505 37.5 19.6685 37.5 20V22.5H21.25V20C21.25 19.6685 21.3817 19.3505 21.6161 19.1161C21.8505 18.8817 22.1685 18.75 22.5 18.75H31.25V17.4625L23.75 15.1175L16.25 17.4625V26.7175C16.2498 27.4828 16.4253 28.2379 16.763 28.9247C17.1006 29.6114 17.5914 30.2115 18.1975 30.6787L18.4338 30.8488L23.75 34.475L28.4775 31.25H22.5C22.1685 31.25 21.8505 31.1183 21.6161 30.8839C21.3817 30.6495 21.25 30.3315 21.25 30V25H37.5V30C37.5 30.3315 37.3683 30.6495 37.1339 30.8839C36.8995 31.1183 36.5815 31.25 36.25 31.25L32.225 31.2512C31.7413 31.8888 31.1537 32.4513 30.475 32.9137L23.75 37.5L17.025 32.915C16.0157 32.2268 15.1897 31.3025 14.6189 30.2224C14.0482 29.1423 13.7499 27.9391 13.75 26.7175V16.5438C13.7502 16.2774 13.8354 16.0181 13.9932 15.8036C14.151 15.5891 14.3733 15.4306 14.6275 15.3513L23.75 12.5Z" fill="#008080"/>
</svg>
