<svg width="24" height="25" fill="none" xmlns="http://www.w3.org/2000/svg"><g clip-path="url(#a)"><path fill-rule="evenodd" clip-rule="evenodd" d="M0 12.862c0 5.966 4.333 10.927 10 11.933v-8.667H7v-3.333h3v-2.667c0-3 1.933-4.666 4.667-4.666.866 0 1.8.133 2.666.266v3.067H15.8c-1.467 0-1.8.733-1.8 1.667v2.333h3.2l-.533 3.333H14v8.667c5.667-1.006 10-5.966 10-11.933C24 6.225 18.6.795 12 .795S0 6.225 0 12.862Z" fill="#686868"/></g><defs><clipPath id="a"><path fill="#fff" transform="translate(0 .795)" d="M0 0h24v24H0z"/></clipPath></defs></svg>