<svg width="20" height="20" viewBox="0 0 20 20" fill="none" xmlns="http://www.w3.org/2000/svg">
  <g clip-path="url(#a)">
    <path d="M15.893 2.447A8.333 8.333 0 1 0 4.117 14.24L7.451 17.5H4.167V20h11.667v-2.5h-3.282l3.341-3.27a8.34 8.34 0 0 0 0-11.783Zm-1.757 10.006L10 16.5l-4.125-4.037a5.833 5.833 0 1 1 8.26-.01Zm-8.302-6.55v5.191l4.167 2.084 4.166-2.084v-5.19L10.001 3.82 5.834 5.903Zm4.167 4.48-1.667-.834V7.3l1.667.834 1.666-.834v2.25l-1.666.834Z" fill="teal"/>
  </g>
  <defs>
    <clipPath id="a">
      <path fill="#fff" d="M0 0h20v20H0z"/>
    </clipPath>
  </defs>
</svg>