<svg width="24" height="24" fill="none" xmlns="http://www.w3.org/2000/svg"><path fill-rule="evenodd" clip-rule="evenodd" d="M15.73 2h3.136c1.297 0 2.35 1.106 2.35 2.47v3.294c0 1.363-1.053 2.47-2.35 2.47H15.73c-1.298 0-2.35-1.107-2.35-2.47V4.47c0-1.364 1.052-2.47 2.35-2.47Z" fill="#5B6397"/><path fill-rule="evenodd" clip-rule="evenodd" d="M4.367 2h3.135c1.298 0 2.35 1.106 2.35 2.47v3.294c0 1.363-1.052 2.47-2.35 2.47H4.367c-1.298 0-2.351-1.107-2.351-2.47V4.47C2.016 3.106 3.069 2 4.367 2ZM4.367 13.766h3.135c1.298 0 2.35 1.106 2.35 2.47v3.294c0 1.364-1.052 2.47-2.35 2.47H4.367c-1.298 0-2.351-1.106-2.351-2.47v-3.293c0-1.365 1.053-2.471 2.351-2.471ZM15.73 13.766h3.136c1.297 0 2.35 1.106 2.35 2.47v3.294c0 1.364-1.053 2.47-2.35 2.47H15.73c-1.298 0-2.35-1.106-2.35-2.47v-3.293c0-1.365 1.052-2.471 2.35-2.471Z" fill="#07060D" stroke="#1E223E" stroke-width="1.5" stroke-linecap="round" stroke-linejoin="round"/></svg>