<svg width="524" height="194" viewBox="0 0 524 194" fill="none" xmlns="http://www.w3.org/2000/svg">
<g filter="url(#filter0_d_10130_12221)">
<rect x="6" y="5" width="512" height="182" rx="20" fill="#FFE8E8"/>
</g>
<path d="M73.14 38.1V52H70.86V42.48L66.62 52H65.04L60.78 42.48V52H58.5V38.1H60.96L65.84 49L70.7 38.1H73.14ZM80.9167 52.18C79.8767 52.18 78.9367 51.9467 78.0967 51.48C77.2567 51 76.5967 50.3333 76.1167 49.48C75.6367 48.6133 75.3967 47.6133 75.3967 46.48C75.3967 45.36 75.6434 44.3667 76.1367 43.5C76.6301 42.6333 77.3034 41.9667 78.1567 41.5C79.0101 41.0333 79.9634 40.8 81.0167 40.8C82.0701 40.8 83.0234 41.0333 83.8767 41.5C84.7301 41.9667 85.4034 42.6333 85.8967 43.5C86.3901 44.3667 86.6367 45.36 86.6367 46.48C86.6367 47.6 86.3834 48.5933 85.8767 49.46C85.3701 50.3267 84.6767 51 83.7967 51.48C82.9301 51.9467 81.9701 52.18 80.9167 52.18ZM80.9167 50.2C81.5034 50.2 82.0501 50.06 82.5567 49.78C83.0767 49.5 83.4967 49.08 83.8167 48.52C84.1367 47.96 84.2967 47.28 84.2967 46.48C84.2967 45.68 84.1434 45.0067 83.8367 44.46C83.5301 43.9 83.1234 43.48 82.6167 43.2C82.1101 42.92 81.5634 42.78 80.9767 42.78C80.3901 42.78 79.8434 42.92 79.3367 43.2C78.8434 43.48 78.4501 43.9 78.1567 44.46C77.8634 45.0067 77.7167 45.68 77.7167 46.48C77.7167 47.6667 78.0167 48.5867 78.6167 49.24C79.2301 49.88 79.9967 50.2 80.9167 50.2ZM91.1706 42.62C91.5573 42.0867 92.084 41.6533 92.7506 41.32C93.4306 40.9733 94.184 40.8 95.0106 40.8C95.984 40.8 96.864 41.0333 97.6506 41.5C98.4373 41.9667 99.0573 42.6333 99.5106 43.5C99.964 44.3533 100.191 45.3333 100.191 46.44C100.191 47.5467 99.964 48.54 99.5106 49.42C99.0573 50.2867 98.4306 50.9667 97.6306 51.46C96.844 51.94 95.9706 52.18 95.0106 52.18C94.1573 52.18 93.3973 52.0133 92.7306 51.68C92.0773 51.3467 91.5573 50.92 91.1706 50.4V52H88.8906V37.2H91.1706V42.62ZM97.8706 46.44C97.8706 45.68 97.7106 45.0267 97.3906 44.48C97.084 43.92 96.6706 43.5 96.1506 43.22C95.644 42.9267 95.0973 42.78 94.5106 42.78C93.9373 42.78 93.3906 42.9267 92.8706 43.22C92.364 43.5133 91.9506 43.94 91.6306 44.5C91.324 45.06 91.1706 45.72 91.1706 46.48C91.1706 47.24 91.324 47.9067 91.6306 48.48C91.9506 49.04 92.364 49.4667 92.8706 49.76C93.3906 50.0533 93.9373 50.2 94.5106 50.2C95.0973 50.2 95.644 50.0533 96.1506 49.76C96.6706 49.4533 97.084 49.0133 97.3906 48.44C97.7106 47.8667 97.8706 47.2 97.8706 46.44ZM103.605 39.52C103.192 39.52 102.845 39.38 102.565 39.1C102.285 38.82 102.145 38.4733 102.145 38.06C102.145 37.6467 102.285 37.3 102.565 37.02C102.845 36.74 103.192 36.6 103.605 36.6C104.005 36.6 104.345 36.74 104.625 37.02C104.905 37.3 105.045 37.6467 105.045 38.06C105.045 38.4733 104.905 38.82 104.625 39.1C104.345 39.38 104.005 39.52 103.605 39.52ZM104.725 40.98V52H102.445V40.98H104.725ZM109.999 37.2V52H107.719V37.2H109.999ZM123.092 46.22C123.092 46.6333 123.066 47.0067 123.012 47.34H114.592C114.659 48.22 114.986 48.9267 115.572 49.46C116.159 49.9933 116.879 50.26 117.732 50.26C118.959 50.26 119.826 49.7467 120.332 48.72H122.792C122.459 49.7333 121.852 50.5667 120.972 51.22C120.106 51.86 119.026 52.18 117.732 52.18C116.679 52.18 115.732 51.9467 114.892 51.48C114.066 51 113.412 50.3333 112.932 49.48C112.466 48.6133 112.232 47.6133 112.232 46.48C112.232 45.3467 112.459 44.3533 112.912 43.5C113.379 42.6333 114.026 41.9667 114.852 41.5C115.692 41.0333 116.652 40.8 117.732 40.8C118.772 40.8 119.699 41.0267 120.512 41.48C121.326 41.9333 121.959 42.5733 122.412 43.4C122.866 44.2133 123.092 45.1533 123.092 46.22ZM120.712 45.5C120.699 44.66 120.399 43.9867 119.812 43.48C119.226 42.9733 118.499 42.72 117.632 42.72C116.846 42.72 116.172 42.9733 115.612 43.48C115.052 43.9733 114.719 44.6467 114.612 45.5H120.712ZM132.811 42.62C133.198 42.0867 133.725 41.6533 134.391 41.32C135.071 40.9733 135.825 40.8 136.651 40.8C137.625 40.8 138.505 41.0333 139.291 41.5C140.078 41.9667 140.698 42.6333 141.151 43.5C141.605 44.3533 141.831 45.3333 141.831 46.44C141.831 47.5467 141.605 48.54 141.151 49.42C140.698 50.2867 140.071 50.9667 139.271 51.46C138.485 51.94 137.611 52.18 136.651 52.18C135.798 52.18 135.038 52.0133 134.371 51.68C133.718 51.3467 133.198 50.92 132.811 50.4V52H130.531V37.2H132.811V42.62ZM139.511 46.44C139.511 45.68 139.351 45.0267 139.031 44.48C138.725 43.92 138.311 43.5 137.791 43.22C137.285 42.9267 136.738 42.78 136.151 42.78C135.578 42.78 135.031 42.9267 134.511 43.22C134.005 43.5133 133.591 43.94 133.271 44.5C132.965 45.06 132.811 45.72 132.811 46.48C132.811 47.24 132.965 47.9067 133.271 48.48C133.591 49.04 134.005 49.4667 134.511 49.76C135.031 50.0533 135.578 50.2 136.151 50.2C136.738 50.2 137.285 50.0533 137.791 49.76C138.311 49.4533 138.725 49.0133 139.031 48.44C139.351 47.8667 139.511 47.2 139.511 46.44ZM143.326 46.44C143.326 45.3333 143.553 44.3533 144.006 43.5C144.473 42.6467 145.099 41.9867 145.886 41.52C146.686 41.04 147.566 40.8 148.526 40.8C149.393 40.8 150.146 40.9733 150.786 41.32C151.439 41.6533 151.959 42.0733 152.346 42.58V40.98H154.646V52H152.346V50.36C151.959 50.88 151.433 51.3133 150.766 51.66C150.099 52.0067 149.339 52.18 148.486 52.18C147.539 52.18 146.673 51.94 145.886 51.46C145.099 50.9667 144.473 50.2867 144.006 49.42C143.553 48.54 143.326 47.5467 143.326 46.44ZM152.346 46.48C152.346 45.72 152.186 45.06 151.866 44.5C151.559 43.94 151.153 43.5133 150.646 43.22C150.139 42.9267 149.593 42.78 149.006 42.78C148.419 42.78 147.873 42.9267 147.366 43.22C146.859 43.5 146.446 43.92 146.126 44.48C145.819 45.0267 145.666 45.68 145.666 46.44C145.666 47.2 145.819 47.8667 146.126 48.44C146.446 49.0133 146.859 49.4533 147.366 49.76C147.886 50.0533 148.433 50.2 149.006 50.2C149.593 50.2 150.139 50.0533 150.646 49.76C151.153 49.4667 151.559 49.04 151.866 48.48C152.186 47.9067 152.346 47.24 152.346 46.48ZM163.201 40.8C164.067 40.8 164.841 40.98 165.521 41.34C166.214 41.7 166.754 42.2333 167.141 42.94C167.527 43.6467 167.721 44.5 167.721 45.5V52H165.461V45.84C165.461 44.8533 165.214 44.1 164.721 43.58C164.227 43.0467 163.554 42.78 162.701 42.78C161.847 42.78 161.167 43.0467 160.661 43.58C160.167 44.1 159.921 44.8533 159.921 45.84V52H157.641V40.98H159.921V42.24C160.294 41.7867 160.767 41.4333 161.341 41.18C161.927 40.9267 162.547 40.8 163.201 40.8ZM174.989 46.5L180.069 52H176.989L172.909 47.26V52H170.629V37.2H172.909V45.8L176.909 40.98H180.069L174.989 46.5ZM189.558 42.84V48.94C189.558 49.3533 189.652 49.6533 189.838 49.84C190.038 50.0133 190.372 50.1 190.838 50.1H192.238V52H190.438C189.412 52 188.625 51.76 188.078 51.28C187.532 50.8 187.258 50.02 187.258 48.94V42.84H185.958V40.98H187.258V38.24H189.558V40.98H192.238V42.84H189.558ZM196.62 42.58C196.953 42.02 197.393 41.5867 197.94 41.28C198.5 40.96 199.16 40.8 199.92 40.8V43.16H199.34C198.447 43.16 197.767 43.3867 197.3 43.84C196.847 44.2933 196.62 45.08 196.62 46.2V52H194.34V40.98H196.62V42.58ZM201.256 46.44C201.256 45.3333 201.482 44.3533 201.936 43.5C202.402 42.6467 203.029 41.9867 203.816 41.52C204.616 41.04 205.496 40.8 206.456 40.8C207.322 40.8 208.076 40.9733 208.716 41.32C209.369 41.6533 209.889 42.0733 210.276 42.58V40.98H212.576V52H210.276V50.36C209.889 50.88 209.362 51.3133 208.696 51.66C208.029 52.0067 207.269 52.18 206.416 52.18C205.469 52.18 204.602 51.94 203.816 51.46C203.029 50.9667 202.402 50.2867 201.936 49.42C201.482 48.54 201.256 47.5467 201.256 46.44ZM210.276 46.48C210.276 45.72 210.116 45.06 209.796 44.5C209.489 43.94 209.082 43.5133 208.576 43.22C208.069 42.9267 207.522 42.78 206.936 42.78C206.349 42.78 205.802 42.9267 205.296 43.22C204.789 43.5 204.376 43.92 204.056 44.48C203.749 45.0267 203.596 45.68 203.596 46.44C203.596 47.2 203.749 47.8667 204.056 48.44C204.376 49.0133 204.789 49.4533 205.296 49.76C205.816 50.0533 206.362 50.2 206.936 50.2C207.522 50.2 208.069 50.0533 208.576 49.76C209.082 49.4667 209.489 49.04 209.796 48.48C210.116 47.9067 210.276 47.24 210.276 46.48ZM221.13 40.8C221.997 40.8 222.77 40.98 223.45 41.34C224.144 41.7 224.684 42.2333 225.07 42.94C225.457 43.6467 225.65 44.5 225.65 45.5V52H223.39V45.84C223.39 44.8533 223.144 44.1 222.65 43.58C222.157 43.0467 221.484 42.78 220.63 42.78C219.777 42.78 219.097 43.0467 218.59 43.58C218.097 44.1 217.85 44.8533 217.85 45.84V52H215.57V40.98H217.85V42.24C218.224 41.7867 218.697 41.4333 219.27 41.18C219.857 40.9267 220.477 40.8 221.13 40.8ZM232.559 52.18C231.692 52.18 230.912 52.0267 230.219 51.72C229.539 51.4 228.999 50.9733 228.599 50.44C228.199 49.8933 227.985 49.2867 227.959 48.62H230.319C230.359 49.0867 230.579 49.48 230.979 49.8C231.392 50.1067 231.905 50.26 232.519 50.26C233.159 50.26 233.652 50.14 233.999 49.9C234.359 49.6467 234.539 49.3267 234.539 48.94C234.539 48.5267 234.339 48.22 233.939 48.02C233.552 47.82 232.932 47.6 232.079 47.36C231.252 47.1333 230.579 46.9133 230.059 46.7C229.539 46.4867 229.085 46.16 228.699 45.72C228.325 45.28 228.139 44.7 228.139 43.98C228.139 43.3933 228.312 42.86 228.659 42.38C229.005 41.8867 229.499 41.5 230.139 41.22C230.792 40.94 231.539 40.8 232.379 40.8C233.632 40.8 234.639 41.12 235.399 41.76C236.172 42.3867 236.585 43.2467 236.639 44.34H234.359C234.319 43.8467 234.119 43.4533 233.759 43.16C233.399 42.8667 232.912 42.72 232.299 42.72C231.699 42.72 231.239 42.8333 230.919 43.06C230.599 43.2867 230.439 43.5867 230.439 43.96C230.439 44.2533 230.545 44.5 230.759 44.7C230.972 44.9 231.232 45.06 231.539 45.18C231.845 45.2867 232.299 45.4267 232.899 45.6C233.699 45.8133 234.352 46.0333 234.859 46.26C235.379 46.4733 235.825 46.7933 236.199 47.22C236.572 47.6467 236.765 48.2133 236.779 48.92C236.779 49.5467 236.605 50.1067 236.259 50.6C235.912 51.0933 235.419 51.48 234.779 51.76C234.152 52.04 233.412 52.18 232.559 52.18ZM243.862 42.84H241.822V52H239.522V42.84H238.222V40.98H239.522V40.2C239.522 38.9333 239.856 38.0133 240.522 37.44C241.202 36.8533 242.262 36.56 243.702 36.56V38.46C243.009 38.46 242.522 38.5933 242.242 38.86C241.962 39.1133 241.822 39.56 241.822 40.2V40.98H243.862V42.84ZM255.983 46.22C255.983 46.6333 255.956 47.0067 255.903 47.34H247.483C247.549 48.22 247.876 48.9267 248.463 49.46C249.049 49.9933 249.769 50.26 250.623 50.26C251.849 50.26 252.716 49.7467 253.223 48.72H255.683C255.349 49.7333 254.743 50.5667 253.863 51.22C252.996 51.86 251.916 52.18 250.623 52.18C249.569 52.18 248.623 51.9467 247.783 51.48C246.956 51 246.303 50.3333 245.823 49.48C245.356 48.6133 245.123 47.6133 245.123 46.48C245.123 45.3467 245.349 44.3533 245.803 43.5C246.269 42.6333 246.916 41.9667 247.743 41.5C248.583 41.0333 249.543 40.8 250.623 40.8C251.663 40.8 252.589 41.0267 253.403 41.48C254.216 41.9333 254.849 42.5733 255.303 43.4C255.756 44.2133 255.983 45.1533 255.983 46.22ZM253.603 45.5C253.589 44.66 253.289 43.9867 252.703 43.48C252.116 42.9733 251.389 42.72 250.523 42.72C249.736 42.72 249.063 42.9733 248.503 43.48C247.943 43.9733 247.609 44.6467 247.503 45.5H253.603ZM260.507 42.58C260.84 42.02 261.28 41.5867 261.827 41.28C262.387 40.96 263.047 40.8 263.807 40.8V43.16H263.227C262.333 43.16 261.653 43.3867 261.187 43.84C260.733 44.2933 260.507 45.08 260.507 46.2V52H258.227V40.98H260.507V42.58ZM270.338 46.44C270.338 45.3333 270.564 44.3533 271.018 43.5C271.484 42.6467 272.111 41.9867 272.898 41.52C273.698 41.04 274.578 40.8 275.538 40.8C276.404 40.8 277.158 40.9733 277.798 41.32C278.451 41.6533 278.971 42.0733 279.358 42.58V40.98H281.658V52H279.358V50.36C278.971 50.88 278.444 51.3133 277.778 51.66C277.111 52.0067 276.351 52.18 275.498 52.18C274.551 52.18 273.684 51.94 272.898 51.46C272.111 50.9667 271.484 50.2867 271.018 49.42C270.564 48.54 270.338 47.5467 270.338 46.44ZM279.358 46.48C279.358 45.72 279.198 45.06 278.878 44.5C278.571 43.94 278.164 43.5133 277.658 43.22C277.151 42.9267 276.604 42.78 276.018 42.78C275.431 42.78 274.884 42.9267 274.378 43.22C273.871 43.5 273.458 43.92 273.138 44.48C272.831 45.0267 272.678 45.68 272.678 46.44C272.678 47.2 272.831 47.8667 273.138 48.44C273.458 49.0133 273.871 49.4533 274.378 49.76C274.898 50.0533 275.444 50.2 276.018 50.2C276.604 50.2 277.151 50.0533 277.658 49.76C278.164 49.4667 278.571 49.04 278.878 48.48C279.198 47.9067 279.358 47.24 279.358 46.48ZM290.212 40.8C291.079 40.8 291.852 40.98 292.532 41.34C293.226 41.7 293.766 42.2333 294.152 42.94C294.539 43.6467 294.732 44.5 294.732 45.5V52H292.472V45.84C292.472 44.8533 292.226 44.1 291.732 43.58C291.239 43.0467 290.566 42.78 289.712 42.78C288.859 42.78 288.179 43.0467 287.672 43.58C287.179 44.1 286.932 44.8533 286.932 45.84V52H284.652V40.98H286.932V42.24C287.306 41.7867 287.779 41.4333 288.352 41.18C288.939 40.9267 289.559 40.8 290.212 40.8ZM296.881 46.44C296.881 45.3333 297.107 44.3533 297.561 43.5C298.027 42.6467 298.654 41.9867 299.441 41.52C300.241 41.04 301.127 40.8 302.101 40.8C302.821 40.8 303.527 40.96 304.221 41.28C304.927 41.5867 305.487 42 305.901 42.52V37.2H308.201V52H305.901V50.34C305.527 50.8733 305.007 51.3133 304.341 51.66C303.687 52.0067 302.934 52.18 302.081 52.18C301.121 52.18 300.241 51.94 299.441 51.46C298.654 50.9667 298.027 50.2867 297.561 49.42C297.107 48.54 296.881 47.5467 296.881 46.44ZM305.901 46.48C305.901 45.72 305.741 45.06 305.421 44.5C305.114 43.94 304.707 43.5133 304.201 43.22C303.694 42.9267 303.147 42.78 302.561 42.78C301.974 42.78 301.427 42.9267 300.921 43.22C300.414 43.5 300.001 43.92 299.681 44.48C299.374 45.0267 299.221 45.68 299.221 46.44C299.221 47.2 299.374 47.8667 299.681 48.44C300.001 49.0133 300.414 49.4533 300.921 49.76C301.441 50.0533 301.987 50.2 302.561 50.2C303.147 50.2 303.694 50.0533 304.201 49.76C304.707 49.4667 305.114 49.04 305.421 48.48C305.741 47.9067 305.901 47.24 305.901 46.48ZM318.651 38.1V46.96C318.651 48.0133 318.924 48.8067 319.471 49.34C320.031 49.8733 320.804 50.14 321.791 50.14C322.791 50.14 323.564 49.8733 324.111 49.34C324.671 48.8067 324.951 48.0133 324.951 46.96V38.1H327.231V46.92C327.231 48.0533 326.984 49.0133 326.491 49.8C325.997 50.5867 325.337 51.1733 324.511 51.56C323.684 51.9467 322.771 52.14 321.771 52.14C320.771 52.14 319.857 51.9467 319.031 51.56C318.217 51.1733 317.571 50.5867 317.091 49.8C316.611 49.0133 316.371 48.0533 316.371 46.92V38.1H318.651ZM334.779 52.14C333.846 52.14 333.006 51.98 332.259 51.66C331.513 51.3267 330.926 50.86 330.499 50.26C330.073 49.66 329.859 48.96 329.859 48.16H332.299C332.353 48.76 332.586 49.2533 332.999 49.64C333.426 50.0267 334.019 50.22 334.779 50.22C335.566 50.22 336.179 50.0333 336.619 49.66C337.059 49.2733 337.279 48.78 337.279 48.18C337.279 47.7133 337.139 47.3333 336.859 47.04C336.593 46.7467 336.253 46.52 335.839 46.36C335.439 46.2 334.879 46.0267 334.159 45.84C333.253 45.6 332.513 45.36 331.939 45.12C331.379 44.8667 330.899 44.48 330.499 43.96C330.099 43.44 329.899 42.7467 329.899 41.88C329.899 41.08 330.099 40.38 330.499 39.78C330.899 39.18 331.459 38.72 332.179 38.4C332.899 38.08 333.733 37.92 334.679 37.92C336.026 37.92 337.126 38.26 337.979 38.94C338.846 39.6067 339.326 40.5267 339.419 41.7H336.899C336.859 41.1933 336.619 40.76 336.179 40.4C335.739 40.04 335.159 39.86 334.439 39.86C333.786 39.86 333.253 40.0267 332.839 40.36C332.426 40.6933 332.219 41.1733 332.219 41.8C332.219 42.2267 332.346 42.58 332.599 42.86C332.866 43.1267 333.199 43.34 333.599 43.5C333.999 43.66 334.546 43.8333 335.239 44.02C336.159 44.2733 336.906 44.5267 337.479 44.78C338.066 45.0333 338.559 45.4267 338.959 45.96C339.373 46.48 339.579 47.18 339.579 48.06C339.579 48.7667 339.386 49.4333 338.999 50.06C338.626 50.6867 338.073 51.1933 337.339 51.58C336.619 51.9533 335.766 52.14 334.779 52.14ZM346.85 52.14C345.916 52.14 345.076 51.98 344.33 51.66C343.583 51.3267 342.996 50.86 342.57 50.26C342.143 49.66 341.93 48.96 341.93 48.16H344.37C344.423 48.76 344.656 49.2533 345.07 49.64C345.496 50.0267 346.09 50.22 346.85 50.22C347.636 50.22 348.25 50.0333 348.69 49.66C349.13 49.2733 349.35 48.78 349.35 48.18C349.35 47.7133 349.21 47.3333 348.93 47.04C348.663 46.7467 348.323 46.52 347.91 46.36C347.51 46.2 346.95 46.0267 346.23 45.84C345.323 45.6 344.583 45.36 344.01 45.12C343.45 44.8667 342.97 44.48 342.57 43.96C342.17 43.44 341.97 42.7467 341.97 41.88C341.97 41.08 342.17 40.38 342.57 39.78C342.97 39.18 343.53 38.72 344.25 38.4C344.97 38.08 345.803 37.92 346.75 37.92C348.096 37.92 349.196 38.26 350.05 38.94C350.916 39.6067 351.396 40.5267 351.49 41.7H348.97C348.93 41.1933 348.69 40.76 348.25 40.4C347.81 40.04 347.23 39.86 346.51 39.86C345.856 39.86 345.323 40.0267 344.91 40.36C344.496 40.6933 344.29 41.1733 344.29 41.8C344.29 42.2267 344.416 42.58 344.67 42.86C344.936 43.1267 345.27 43.34 345.67 43.5C346.07 43.66 346.616 43.8333 347.31 44.02C348.23 44.2733 348.976 44.5267 349.55 44.78C350.136 45.0333 350.63 45.4267 351.03 45.96C351.443 46.48 351.65 47.18 351.65 48.06C351.65 48.7667 351.456 49.4333 351.07 50.06C350.696 50.6867 350.143 51.1933 349.41 51.58C348.69 51.9533 347.836 52.14 346.85 52.14ZM358.88 38.1C360.36 38.1 361.653 38.3867 362.76 38.96C363.88 39.52 364.74 40.3333 365.34 41.4C365.953 42.4533 366.26 43.6867 366.26 45.1C366.26 46.5133 365.953 47.74 365.34 48.78C364.74 49.82 363.88 50.62 362.76 51.18C361.653 51.7267 360.36 52 358.88 52H354.34V38.1H358.88ZM358.88 50.14C360.507 50.14 361.753 49.7 362.62 48.82C363.487 47.94 363.92 46.7 363.92 45.1C363.92 43.4867 363.487 42.2267 362.62 41.32C361.753 40.4133 360.507 39.96 358.88 39.96H356.62V50.14H358.88ZM372.955 46.44C372.955 45.3333 373.182 44.3533 373.635 43.5C374.102 42.6467 374.728 41.9867 375.515 41.52C376.315 41.04 377.195 40.8 378.155 40.8C379.022 40.8 379.775 40.9733 380.415 41.32C381.068 41.6533 381.588 42.0733 381.975 42.58V40.98H384.275V52H381.975V50.36C381.588 50.88 381.062 51.3133 380.395 51.66C379.728 52.0067 378.968 52.18 378.115 52.18C377.168 52.18 376.302 51.94 375.515 51.46C374.728 50.9667 374.102 50.2867 373.635 49.42C373.182 48.54 372.955 47.5467 372.955 46.44ZM381.975 46.48C381.975 45.72 381.815 45.06 381.495 44.5C381.188 43.94 380.782 43.5133 380.275 43.22C379.768 42.9267 379.222 42.78 378.635 42.78C378.048 42.78 377.502 42.9267 376.995 43.22C376.488 43.5 376.075 43.92 375.755 44.48C375.448 45.0267 375.295 45.68 375.295 46.44C375.295 47.2 375.448 47.8667 375.755 48.44C376.075 49.0133 376.488 49.4533 376.995 49.76C377.515 50.0533 378.062 50.2 378.635 50.2C379.222 50.2 379.768 50.0533 380.275 49.76C380.782 49.4667 381.188 49.04 381.495 48.48C381.815 47.9067 381.975 47.24 381.975 46.48ZM391.53 49.96L394.65 40.98H397.07L392.87 52H390.15L385.97 40.98H388.41L391.53 49.96ZM398.033 46.44C398.033 45.3333 398.26 44.3533 398.713 43.5C399.18 42.6467 399.806 41.9867 400.593 41.52C401.393 41.04 402.273 40.8 403.233 40.8C404.1 40.8 404.853 40.9733 405.493 41.32C406.146 41.6533 406.666 42.0733 407.053 42.58V40.98H409.353V52H407.053V50.36C406.666 50.88 406.14 51.3133 405.473 51.66C404.806 52.0067 404.046 52.18 403.193 52.18C402.246 52.18 401.38 51.94 400.593 51.46C399.806 50.9667 399.18 50.2867 398.713 49.42C398.26 48.54 398.033 47.5467 398.033 46.44ZM407.053 46.48C407.053 45.72 406.893 45.06 406.573 44.5C406.266 43.94 405.86 43.5133 405.353 43.22C404.846 42.9267 404.3 42.78 403.713 42.78C403.126 42.78 402.58 42.9267 402.073 43.22C401.566 43.5 401.153 43.92 400.833 44.48C400.526 45.0267 400.373 45.68 400.373 46.44C400.373 47.2 400.526 47.8667 400.833 48.44C401.153 49.0133 401.566 49.4533 402.073 49.76C402.593 50.0533 403.14 50.2 403.713 50.2C404.3 50.2 404.846 50.0533 405.353 49.76C405.86 49.4667 406.266 49.04 406.573 48.48C406.893 47.9067 407.053 47.24 407.053 46.48ZM413.508 39.52C413.094 39.52 412.748 39.38 412.468 39.1C412.188 38.82 412.048 38.4733 412.048 38.06C412.048 37.6467 412.188 37.3 412.468 37.02C412.748 36.74 413.094 36.6 413.508 36.6C413.908 36.6 414.248 36.74 414.528 37.02C414.808 37.3 414.948 37.6467 414.948 38.06C414.948 38.4733 414.808 38.82 414.528 39.1C414.248 39.38 413.908 39.52 413.508 39.52ZM414.628 40.98V52H412.348V40.98H414.628ZM419.901 37.2V52H417.621V37.2H419.901ZM422.135 46.44C422.135 45.3333 422.361 44.3533 422.815 43.5C423.281 42.6467 423.908 41.9867 424.695 41.52C425.495 41.04 426.375 40.8 427.335 40.8C428.201 40.8 428.955 40.9733 429.595 41.32C430.248 41.6533 430.768 42.0733 431.155 42.58V40.98H433.455V52H431.155V50.36C430.768 50.88 430.241 51.3133 429.575 51.66C428.908 52.0067 428.148 52.18 427.295 52.18C426.348 52.18 425.481 51.94 424.695 51.46C423.908 50.9667 423.281 50.2867 422.815 49.42C422.361 48.54 422.135 47.5467 422.135 46.44ZM431.155 46.48C431.155 45.72 430.995 45.06 430.675 44.5C430.368 43.94 429.961 43.5133 429.455 43.22C428.948 42.9267 428.401 42.78 427.815 42.78C427.228 42.78 426.681 42.9267 426.175 43.22C425.668 43.5 425.255 43.92 424.935 44.48C424.628 45.0267 424.475 45.68 424.475 46.44C424.475 47.2 424.628 47.8667 424.935 48.44C425.255 49.0133 425.668 49.4533 426.175 49.76C426.695 50.0533 427.241 50.2 427.815 50.2C428.401 50.2 428.948 50.0533 429.455 49.76C429.961 49.4667 430.368 49.04 430.675 48.48C430.995 47.9067 431.155 47.24 431.155 46.48ZM438.729 42.62C439.116 42.0867 439.643 41.6533 440.309 41.32C440.989 40.9733 441.743 40.8 442.569 40.8C443.543 40.8 444.423 41.0333 445.209 41.5C445.996 41.9667 446.616 42.6333 447.069 43.5C447.523 44.3533 447.749 45.3333 447.749 46.44C447.749 47.5467 447.523 48.54 447.069 49.42C446.616 50.2867 445.989 50.9667 445.189 51.46C444.403 51.94 443.529 52.18 442.569 52.18C441.716 52.18 440.956 52.0133 440.289 51.68C439.636 51.3467 439.116 50.92 438.729 50.4V52H436.449V37.2H438.729V42.62ZM445.429 46.44C445.429 45.68 445.269 45.0267 444.949 44.48C444.643 43.92 444.229 43.5 443.709 43.22C443.203 42.9267 442.656 42.78 442.069 42.78C441.496 42.78 440.949 42.9267 440.429 43.22C439.923 43.5133 439.509 43.94 439.189 44.5C438.883 45.06 438.729 45.72 438.729 46.48C438.729 47.24 438.883 47.9067 439.189 48.48C439.509 49.04 439.923 49.4667 440.429 49.76C440.949 50.0533 441.496 50.2 442.069 50.2C442.656 50.2 443.203 50.0533 443.709 49.76C444.229 49.4533 444.643 49.0133 444.949 48.44C445.269 47.8667 445.429 47.2 445.429 46.44ZM452.284 37.2V52H450.004V37.2H452.284ZM465.377 46.22C465.377 46.6333 465.351 47.0067 465.297 47.34H456.877C456.944 48.22 457.271 48.9267 457.857 49.46C458.444 49.9933 459.164 50.26 460.017 50.26C461.244 50.26 462.111 49.7467 462.617 48.72H465.077C464.744 49.7333 464.137 50.5667 463.257 51.22C462.391 51.86 461.311 52.18 460.017 52.18C458.964 52.18 458.017 51.9467 457.177 51.48C456.351 51 455.697 50.3333 455.217 49.48C454.751 48.6133 454.517 47.6133 454.517 46.48C454.517 45.3467 454.744 44.3533 455.197 43.5C455.664 42.6333 456.311 41.9667 457.137 41.5C457.977 41.0333 458.937 40.8 460.017 40.8C461.057 40.8 461.984 41.0267 462.797 41.48C463.611 41.9333 464.244 42.5733 464.697 43.4C465.151 44.2133 465.377 45.1533 465.377 46.22ZM462.997 45.5C462.984 44.66 462.684 43.9867 462.097 43.48C461.511 42.9733 460.784 42.72 459.917 42.72C459.131 42.72 458.457 42.9733 457.897 43.48C457.337 43.9733 457.004 44.6467 456.897 45.5H462.997Z" fill="#0F0F0F"/>
<path d="M263.398 77.4C262.355 77.525 229.823 99.3375 229.636 100C229.448 100.669 229.373 107.619 229.373 107.619L233.567 108.95L233.586 114.475L235.83 119.069V138.487L234.155 142.144L229.561 143.5V146.787L225.961 147.881C225.961 147.881 226.011 150.7 226.011 151.169C226.011 151.637 226.167 152.631 228.048 152.631C229.93 152.631 298.592 152.312 299.286 152.312C299.98 152.312 300.698 152.175 300.736 150.931C300.773 149.687 300.698 147.931 300.698 147.931L297.211 146.206L297.198 143.45L291.523 141.7L290.155 137.825L290.173 119.569L292.348 114.981L293.005 113.737V108.8L296.661 107.419C296.661 107.419 296.73 100.275 296.623 100.069C296.53 99.8687 264.261 77.3 263.398 77.4V77.4Z" fill="#CDDFEE"/>
<path d="M232.581 101.45C232.388 101.931 232.338 105.481 232.513 105.656C232.688 105.831 293.1 105.738 293.306 105.569C293.513 105.4 293.544 101.544 293.444 101.306C293.344 101.069 276.313 89.4375 276.313 89.4375L249.981 89.5687C249.975 89.5687 232.694 101.163 232.581 101.45V101.45ZM225.963 147.894C225.906 147.756 225.963 147.106 225.963 146.844C225.963 146.581 226.213 146.281 226.775 146.281C227.338 146.281 298.738 146.181 299.088 146.194C299.969 146.225 300.563 146.413 300.65 146.975C300.738 147.538 300.706 147.944 300.706 147.944L225.963 147.894V147.894ZM297.206 143.456L229.569 143.506C229.569 143.506 229.594 142.813 229.594 142.575C229.594 142.338 229.719 141.95 230.525 141.95C231.331 141.95 295.475 141.706 296.025 141.706C296.575 141.706 297.175 141.963 297.25 142.344C297.325 142.725 297.206 143.456 297.206 143.456ZM290.663 139.269L290.163 137.806L235.819 137.794L235.413 139.425L290.663 139.269ZM235.194 117.738L290.981 117.931L290.181 119.569L235.838 119.775L235.194 117.738ZM233.975 115.438C233.975 115.438 233.481 115.081 233.4 114.613C233.319 114.144 233.538 113.869 233.538 113.869L293.012 113.738C293.012 113.738 293.238 114.2 293.044 114.525C292.85 114.856 292.3 115.156 292.3 115.156L233.975 115.438ZM229.375 107.619L296.669 107.419C296.669 107.419 296.713 108.063 296.669 108.331C296.631 108.6 296.281 108.838 295.388 108.838H294.494C294.494 108.838 231.5 109.15 230.8 109.15C230.1 109.15 229.6 108.763 229.481 108.45C229.413 108.244 229.375 107.619 229.375 107.619V107.619Z" fill="#94ADBC"/>
<path d="M234.258 103.144L248.414 93.5875L249.364 103.331L234.258 103.144ZM277.72 93.2687L291.895 103.269H277.339L277.72 93.2687Z" fill="#657582"/>
<path d="M243.88 115.394L246.212 115.387L248.037 119.769L247.868 137.806L246.349 141.894L243.637 141.9L242.143 137.831L242.074 119.731L243.88 115.394ZM256.293 115.331L253.974 119.669L254.149 137.806L255.524 141.862L270.668 141.8L272.03 137.806L272.068 119.631L270.299 115.262L256.293 115.331ZM280.105 115.219L282.162 115.206L283.98 119.587L283.974 137.812L282.918 141.762L279.487 141.769L278.437 137.812L278.355 119.606L280.105 115.219Z" fill="#54636E"/>
<path d="M257.137 141.856V127.95L269.337 128.069L269.362 141.819L257.137 141.856Z" fill="#6BA4AE"/>
<path d="M262.537 127.319L262.531 141.837L263.794 141.831V127.531L262.537 127.319Z" fill="#A5D0D7"/>
<path d="M257.137 128.613V125.125H269.337V128.613C269.337 128.613 257.243 128.506 257.137 128.613V128.613Z" fill="#95ACBC"/>
<path d="M257.138 125.125H269.338C269.338 125.125 269.388 124.037 268.256 123.931C267.125 123.825 258.813 123.912 258.113 123.931C257.069 123.962 257.138 125.125 257.138 125.125V125.125Z" fill="#CCDEED"/>
<path d="M263.245 81.9437C254.188 82 247.02 89.1625 247.326 98.2187C247.632 107.275 255.938 113.644 263.245 113.587C270.913 113.531 278.988 108.044 279.351 98.1687C279.72 88.3 271.407 81.8875 263.245 81.9437Z" fill="#CDDFEE"/>
<path d="M263.3 84.1125C255.719 84.1625 249.65 90.3813 249.906 98.2688C250.156 106.156 256.831 111.156 262.95 111.213C270.006 111.275 276.5 106.663 276.8 98.0688C277.1 89.475 270.131 84.0688 263.3 84.1125V84.1125Z" fill="#94ADBC"/>
<path d="M261.112 88.5187C261.112 88.5187 260.974 86.1062 261.143 85.9C261.312 85.6937 261.999 85.6937 263.331 85.6937C264.668 85.6937 265.212 85.6937 265.418 85.8625C265.624 86.0312 265.518 88.6687 265.518 88.6687C265.518 88.6687 267.331 89.35 268.462 90.225C269.662 91.15 270.518 92.3812 270.449 92.5875C270.381 92.7937 267.987 94.8812 267.643 94.8125C267.299 94.7437 265.349 92.4625 263.024 92.3125C259.331 92.075 259.362 94.95 261.656 95.7375C263.949 96.525 271.181 97.15 270.899 102.906C270.662 107.75 265.768 108.094 265.768 108.094C265.768 108.094 265.906 109.906 265.768 110.012C265.631 110.119 261.318 110.181 261.181 109.981C261.043 109.781 261.149 107.925 261.149 107.925C261.149 107.925 259.231 107.55 257.656 106.487C256.081 105.425 254.949 104.025 254.918 103.85C254.887 103.681 257.693 101.319 257.893 101.25C258.093 101.181 260.949 103.994 263.643 104.225C266.381 104.462 267.543 101.762 263.743 100.6C259.943 99.4375 255.462 98.4437 255.668 93.6875C255.874 88.8562 261.112 88.5187 261.112 88.5187V88.5187Z" fill="#024FAC"/>
<defs>
<filter id="filter0_d_10130_12221" x="0" y="0" width="524" height="194" filterUnits="userSpaceOnUse" color-interpolation-filters="sRGB">
<feFlood flood-opacity="0" result="BackgroundImageFix"/>
<feColorMatrix in="SourceAlpha" type="matrix" values="0 0 0 0 0 0 0 0 0 0 0 0 0 0 0 0 0 0 127 0" result="hardAlpha"/>
<feOffset dy="1"/>
<feGaussianBlur stdDeviation="3"/>
<feComposite in2="hardAlpha" operator="out"/>
<feColorMatrix type="matrix" values="0 0 0 0 0.956863 0 0 0 0 0.960784 0 0 0 0 0.988235 0 0 0 0.25 0"/>
<feBlend mode="normal" in2="BackgroundImageFix" result="effect1_dropShadow_10130_12221"/>
<feBlend mode="normal" in="SourceGraphic" in2="effect1_dropShadow_10130_12221" result="shape"/>
</filter>
</defs>
</svg>
