<svg width="30" height="30" fill="none" xmlns="http://www.w3.org/2000/svg"><path d="M4.816 2.527c-.258.067-.441.29-.441.674v23.731c0 .279.123.466.313.535L17.3 14.927 4.816 2.527Z" fill="#4DB6AC"/><path d="m20.773 11.475-5.192-2.997L5.493 2.653c-.242-.14-.481-.177-.677-.126l12.485 12.4 3.472-3.452Z" fill="#DCE775"/><path d="m5.26 27.376 15.541-8.973-3.5-3.476-12.613 12.54c.155.057.353.036.573-.09Z" fill="#D32F2F"/><path d="M25.874 14.42c-.498-.269-5.063-2.923-5.063-2.923l-.038-.022-3.472 3.452 3.5 3.476 5.037-2.908c.59-.34.533-.807.036-1.076Z" fill="#FBC02D"/></svg>