<svg width="50" height="50" viewBox="0 0 50 50" fill="none" xmlns="http://www.w3.org/2000/svg">
<circle cx="25" cy="25" r="20" fill="#008080" fill-opacity="0.2"/>
<g clip-path="url(#clip0_9946_12195)">
<path d="M32.5 10H17.5C16.5054 10 15.5516 10.3951 14.8483 11.0983C14.1451 11.8016 13.75 12.7554 13.75 13.75V36.25C13.75 37.2446 14.1451 38.1984 14.8483 38.9016C15.5516 39.6049 16.5054 40 17.5 40H32.5C33.4946 40 34.4484 39.6049 35.1516 38.9016C35.8549 38.1984 36.25 37.2446 36.25 36.25V13.75C36.25 12.7554 35.8549 11.8016 35.1516 11.0983C34.4484 10.3951 33.4946 10 32.5 10V10ZM18.4375 15.625H27.8125C28.0611 15.625 28.2996 15.7238 28.4754 15.8996C28.6512 16.0754 28.75 16.3139 28.75 16.5625C28.75 16.8111 28.6512 17.0496 28.4754 17.2254C28.2996 17.4012 28.0611 17.5 27.8125 17.5H18.4375C18.1889 17.5 17.9504 17.4012 17.7746 17.2254C17.5988 17.0496 17.5 16.8111 17.5 16.5625C17.5 16.3139 17.5988 16.0754 17.7746 15.8996C17.9504 15.7238 18.1889 15.625 18.4375 15.625V15.625ZM18.4375 19.375H31.5625C31.8111 19.375 32.0496 19.4738 32.2254 19.6496C32.4012 19.8254 32.5 20.0639 32.5 20.3125V35.3125C32.5 35.5611 32.4012 35.7996 32.2254 35.9754C32.0496 36.1512 31.8111 36.25 31.5625 36.25H18.4375C18.1889 36.25 17.9504 36.1512 17.7746 35.9754C17.5988 35.7996 17.5 35.5611 17.5 35.3125V20.3125C17.5 20.0639 17.5988 19.8254 17.7746 19.6496C17.9504 19.4738 18.1889 19.375 18.4375 19.375V19.375Z" fill="#008080"/>
</g>
<defs>
<clipPath id="clip0_9946_12195">
<rect width="30" height="30" fill="white" transform="translate(10 10)"/>
</clipPath>
</defs>
</svg>

