<svg width="26" height="32" viewBox="0 0 26 32" fill="none" xmlns="http://www.w3.org/2000/svg">
<path d="M25.8011 0.290007C25.7623 0.20323 25.6991 0.129611 25.6192 0.0781201C25.5393 0.026629 25.4461 -0.000510929 25.3511 7.28483e-06H11.4211C11.3374 0.000146654 11.2551 0.0212755 11.1817 0.0614585C11.1083 0.101641 11.0462 0.159594 11.001 0.230007L0.29105 17.23C0.239489 17.304 0.209364 17.3909 0.203994 17.4809C0.198624 17.571 0.218218 17.6607 0.260617 17.7404C0.303015 17.82 0.366573 17.8864 0.444286 17.9322C0.521999 17.978 0.61085 18.0015 0.70105 18H8.37105L1.60105 31.25C1.56218 31.3288 1.54391 31.4162 1.54795 31.5039C1.55199 31.5917 1.5782 31.677 1.62413 31.7519C1.67007 31.8268 1.73423 31.8889 1.81064 31.9322C1.88704 31.9756 1.97319 31.9989 2.06105 32H5.06105C5.13045 32.0005 5.19919 31.9865 5.26289 31.9589C5.32659 31.9314 5.38386 31.8909 5.43105 31.84L23.0011 12.85C23.0708 12.7789 23.1177 12.6886 23.1358 12.5907C23.1539 12.4927 23.1423 12.3916 23.1026 12.3003C23.0628 12.209 22.9967 12.1316 22.9127 12.0781C22.8287 12.0246 22.7306 11.9974 22.6311 12H15.891L25.7211 0.820007C25.7844 0.748982 25.8257 0.661037 25.8399 0.566916C25.8542 0.472794 25.8406 0.376573 25.8011 0.290007V0.290007Z" fill="white"/>
</svg>
